<svg height="512pt" viewBox="-64 0 512 512.00032" width="512pt" xmlns="http://www.w3.org/2000/svg"><path d="m335.972656 80.035156h-63.992187v31.996094h-159.988281v-31.996094h-63.996094c-17.671875 0-31.996094 14.324219-31.996094 31.996094v351.972656c0 17.671875 14.324219 32 31.996094 32h287.980468c17.667969 0 31.996094-14.328125 31.996094-32v-351.972656c0-17.671875-14.328125-31.996094-32-31.996094zm0 0" fill="#bddbff"/><g fill="#3d9ae2"><path d="m335.972656 64.035156h-47.996094v-16c0-8.835937-7.160156-16-15.996093-16h-34.734375c-8.820313-24.996094-36.238282-38.109375-61.234375-29.285156-13.6875 4.828125-24.457031 15.597656-29.285157 29.285156h-34.734374c-8.835938 0-16 7.164063-16 16v16h-47.996094c-26.507813 0-47.996094 21.488282-47.996094 47.996094v351.972656c0 26.507813 21.488281 47.996094 47.996094 47.996094h287.980468c26.503907 0 47.996094-21.488281 47.996094-47.996094v-351.972656c0-26.507812-21.492187-47.996094-48-47.996094zm-207.980468 0h31.996093c8.835938 0 16-7.164062 16-16 0-8.835937 7.164063-16 15.996094-16 8.835937 0 16 7.164063 16 16 0 8.835938 7.164063 16 16 16h31.996094v31.996094h-127.988281zm223.980468 399.96875c0 8.835938-7.164062 16-16 16h-287.976562c-8.835938 0-16-7.164062-16-16v-351.972656c0-8.835938 7.164062-16 16-16h47.996094v16c0 8.835938 7.164062 16 16 16h159.988281c8.835937 0 15.996093-7.164062 15.996093-16v-16h47.996094c8.835938 0 16 7.164062 16 16zm0 0"/><path d="m287.976562 192.023438h-191.984374c-8.835938 0-16 7.164062-16 16 0 8.835937 7.164062 16 16 16h191.984374c8.835938 0 16-7.164063 16-16 0-8.835938-7.164062-16-16-16zm0 0"/><path d="m287.976562 288.019531h-191.984374c-8.835938 0-16 7.160157-16 15.996094s7.164062 16 16 16h191.984374c8.835938 0 16-7.164063 16-16s-7.164062-15.996094-16-15.996094zm0 0"/><path d="m287.976562 384.011719h-191.984374c-8.835938 0-16 7.160156-16 15.996093 0 8.835938 7.164062 16 16 16h191.984374c8.835938 0 16-7.164062 16-16 0-8.835937-7.164062-15.996093-16-15.996093zm0 0"/></g></svg>