<svg height="512pt" viewBox="0 -15 512 511" width="512pt" xmlns="http://www.w3.org/2000/svg"><path d="m400.5625 144.59375h-.945312c-9.101563-79.101562-80.605469-135.847656-159.707032-126.742188-66.566406 7.660157-119.085937 60.175782-126.746094 126.742188h-.941406c-53.085937 0-96.117187 43.03125-96.117187 96.117188 0 53.082031 43.03125 96.113281 96.117187 96.113281h288.339844c53.085938 0 96.117188-43.03125 96.117188-96.113281 0-53.085938-43.035157-96.117188-96.117188-96.117188zm0 0" fill="#bddbff"/><g fill="#3d9ae2"><path d="m413.492188 129.410156c-17.292969-86.765625-101.648438-143.082031-188.414063-125.789062-63.460937 12.648437-113.082031 62.238281-125.769531 125.691406-61.519532 7.089844-105.648438 62.707031-98.5625 124.230469 6.523437 56.621093 54.480468 99.339843 111.476562 99.300781h80.09375c8.847656 0 16.019532-7.171875 16.019532-16.019531 0-8.847657-7.171876-16.019531-16.019532-16.019531h-80.09375c-44.238281-.261719-79.886718-36.332032-79.625-80.566407.261719-44.238281 36.332032-79.886719 80.566406-79.625 8.167969 0 15.027344-6.140625 15.925782-14.257812 8.132812-70.304688 71.722656-120.707031 142.03125-112.574219 59.109375 6.835938 105.738281 53.464844 112.574218 112.574219 1.34375 8.261719 8.5 14.3125 16.867188 14.257812 44.238281 0 80.097656 35.859375 80.097656 80.097657 0 44.234374-35.859375 80.09375-80.097656 80.09375h-80.09375c-8.847656 0-16.019531 7.171874-16.019531 16.019531 0 8.847656 7.171875 16.019531 16.019531 16.019531h80.09375c61.929688-.386719 111.820312-50.902344 111.433594-112.828125-.347656-56.394531-42.527344-103.753906-98.503906-110.605469zm0 0"/><path d="m313.019531 385.679688-40.609375 40.625v-201.613282c0-8.847656-7.171875-16.019531-16.019531-16.019531-8.84375 0-16.015625 7.171875-16.015625 16.019531v201.613282l-40.609375-40.625c-6.144531-6.363282-16.289063-6.539063-22.652344-.390626-6.363281 6.144532-6.539062 16.285157-.394531 22.648438.128906.132812.261719.265625.394531.394531l67.9375 67.953125c1.480469 1.480469 3.238281 2.65625 5.175781 3.460938 3.941407 1.664062 8.390626 1.664062 12.332032 0 1.9375-.804688 3.695312-1.980469 5.175781-3.460938l67.9375-67.953125c6.363281-6.144531 6.539063-16.285156.394531-22.652343-6.148437-6.363282-16.289062-6.539063-22.652344-.390626-.132812.128907-.265624.257813-.394531.390626zm0 0"/></g></svg>