<?xml version="1.0" encoding="iso-8859-1"?>
<!-- Generator: Adobe Illustrator 19.0.0, SVG Export Plug-In . SVG Version: 6.00 Build 0)  -->
<svg version="1.1" id="Capa_1" xmlns="http://www.w3.org/2000/svg" xmlns:xlink="http://www.w3.org/1999/xlink" x="0px" y="0px"
	 viewBox="0 0 485.461 485.461" style="enable-background:new 0 0 485.461 485.461;" xml:space="preserve">
<g transform="matrix(1.25 0 0 -1.25 0 45)">
	<g>
		<g>
			<path style="fill:#99AAB5;" d="M388.369-158.173c0-37.592-86.949-125.167-194.185-125.167S0-206.517,0-158.173
				C0-120.479,86.949-33.029,194.185-33.029S388.369-120.479,388.369-158.173"/>
		</g>
	</g>
	<g>
		<g>
			<path style="fill:#F5F8FA;" d="M374.226-158.173c0-33.041-80.634-109.989-180.065-109.989S14.108-200.635,14.108-158.173
				c0,33.132,80.623,109.978,180.053,109.978S374.226-125.041,374.226-158.173"/>
			<path style="fill:#55ACEE;" d="M290.497-158.173c0-53.146-43.088-96.233-96.233-96.233s-96.233,43.088-96.233,96.233
				s43.088,96.233,96.233,96.233S290.497-105.028,290.497-158.173"/>
		</g>
	</g>
	<g>
		<g>
			<path style="fill:#292F33;" d="M247.831-158.173c0-29.594-23.973-53.567-53.567-53.567c-29.582,0-53.567,23.973-53.567,53.567
				c0,29.582,23.984,53.567,53.567,53.567C223.858-104.607,247.831-128.591,247.831-158.173"/>
			<path style="fill:#F5F8FA;" d="M251.153-124.04c0-12.561-10.183-22.756-22.756-22.756c-12.561,0-22.756,10.194-22.756,22.756
				c0,12.572,10.194,22.756,22.756,22.756C240.97-101.284,251.153-111.467,251.153-124.04"/>
		</g>
	</g>
</g>
<g>
</g>
<g>
</g>
<g>
</g>
<g>
</g>
<g>
</g>
<g>
</g>
<g>
</g>
<g>
</g>
<g>
</g>
<g>
</g>
<g>
</g>
<g>
</g>
<g>
</g>
<g>
</g>
<g>
</g>
</svg>
